<?xml version="1.0" standalone="no"?>
<!DOCTYPE svg PUBLIC "-//W3C//DTD SVG 20010904//EN"
 "http://www.w3.org/TR/2001/REC-SVG-20010904/DTD/svg10.dtd">
<svg version="1.0" xmlns="http://www.w3.org/2000/svg"
 width="512.000000pt" height="512.000000pt" viewBox="0 0 512.000000 512.000000"
 preserveAspectRatio="xMidYMid meet">
<metadata>
Created by potrace 1.15, written by Peter Selinger 2001-2017
</metadata>
<g transform="translate(0.000000,512.000000) scale(0.100000,-0.100000)"
fill="#000000" stroke="none">
<path d="M203 4958 c-174 -172 -196 -198 -191 -231 3 -19 32 5 192 163 103
102 192 193 197 203 8 14 5 17 -17 17 -21 0 -60 -33 -181 -152z"/>
<path d="M303 4858 c-140 -139 -264 -265 -275 -281 -10 -15 -18 -37 -16 -50 3
-18 49 23 292 263 158 157 292 293 297 303 8 14 5 17 -17 17 -22 0 -75 -47
-281 -252z"/>
<path d="M402 4758 c-194 -194 -362 -365 -373 -381 -11 -15 -19 -37 -17 -50 4
-18 67 40 392 363 213 212 392 393 397 403 8 14 5 17 -18 17 -22 0 -89 -62
-381 -352z"/>
<path d="M502 4658 c-249 -249 -462 -465 -473 -481 -11 -15 -19 -37 -17 -50 4
-18 84 57 492 463 268 267 492 493 497 503 8 14 5 17 -18 17 -22 0 -104 -76
-481 -452z"/>
<path d="M602 4558 c-304 -304 -562 -565 -573 -581 -11 -15 -19 -37 -17 -50 4
-18 101 75 592 563 323 322 592 593 597 603 8 14 5 17 -18 17 -23 0 -118 -91
-581 -552z"/>
<path d="M702 4458 c-359 -359 -662 -665 -673 -681 -11 -15 -19 -37 -17 -50 4
-18 118 92 692 663 378 377 692 693 697 703 8 14 5 17 -18 17 -23 0 -133 -106
-681 -652z"/>
<path d="M802 4358 c-414 -414 -762 -765 -773 -781 -11 -15 -19 -37 -17 -50 4
-18 136 109 792 763 433 432 792 793 797 803 8 14 5 17 -18 17 -23 0 -148
-120 -781 -752z"/>
<path d="M902 4258 c-469 -469 -862 -865 -873 -881 -11 -15 -19 -37 -17 -50 4
-18 153 126 892 863 488 487 892 893 897 903 8 14 5 17 -18 17 -23 0 -162
-135 -881 -852z"/>
<path d="M1002 4158 c-524 -524 -962 -965 -973 -981 -11 -15 -19 -37 -17 -50
4 -18 170 144 992 963 543 542 992 993 997 1003 8 14 5 17 -18 17 -23 0 -177
-149 -981 -952z"/>
<path d="M1102 4058 c-579 -579 -1062 -1065 -1073 -1081 -11 -15 -19 -37 -17
-50 4 -18 79 52 462 433 377 375 449 442 405 379 -30 -41 -74 -113 -99 -160
-42 -78 -71 -110 -407 -450 -296 -298 -363 -370 -363 -392 0 -15 3 -27 7 -27
4 0 150 143 325 317 l318 317 -36 -99 -35 -100 -290 -291 c-234 -236 -289
-295 -289 -317 0 -15 3 -27 7 -27 4 0 128 120 275 267 147 147 268 263 268
258 0 -6 -6 -41 -14 -79 l-15 -69 -260 -262 c-211 -211 -261 -267 -261 -288 0
-15 3 -27 7 -27 4 0 119 111 256 248 l249 247 -7 -70 -7 -70 -249 -251 c-200
-202 -249 -256 -249 -277 0 -15 3 -27 7 -27 4 0 116 109 250 242 l243 242 0
-64 0 -64 -250 -251 c-201 -203 -250 -257 -250 -278 0 -15 3 -27 7 -27 4 0
116 108 249 241 133 133 244 237 247 232 3 -4 7 -30 8 -56 l3 -47 -257 -258
c-209 -210 -257 -264 -257 -286 0 -22 3 -25 18 -17 9 5 127 120 262 255 l245
246 10 -52 11 -53 -273 -276 c-221 -223 -273 -281 -273 -302 0 -15 3 -27 7
-27 4 0 130 122 279 272 l273 271 14 -49 15 -49 -294 -296 c-241 -242 -294
-300 -294 -323 0 -22 3 -25 18 -17 9 5 145 138 302 295 l284 285 18 -47 18
-47 -320 -320 c-261 -262 -320 -326 -320 -348 0 -15 3 -27 7 -27 4 0 152 145
329 321 l322 322 22 -43 22 -43 -351 -351 c-289 -290 -351 -357 -351 -379 0
-23 3 -26 18 -18 9 5 172 165 362 355 l345 346 22 -43 22 -42 -385 -386 c-315
-316 -384 -390 -384 -412 0 -15 3 -27 7 -27 4 0 184 176 399 391 l391 391 22
-37 c11 -20 21 -39 21 -43 0 -3 -189 -196 -420 -427 -346 -347 -420 -426 -420
-448 0 -15 3 -27 7 -27 4 0 201 194 438 430 l431 431 27 -38 27 -38 -465 -465
c-384 -385 -465 -471 -465 -493 0 -15 3 -27 7 -27 4 0 220 213 480 472 l473
473 32 -33 33 -32 -513 -513 c-427 -428 -512 -517 -512 -540 0 -23 3 -26 18
-18 9 5 246 239 527 520 l509 511 33 -32 33 -32 -535 -536 c-294 -294 -535
-539 -535 -543 0 -4 12 -7 27 -7 23 0 117 90 553 525 l526 525 34 -29 35 -30
-487 -488 c-269 -269 -488 -492 -488 -496 0 -4 12 -7 27 -7 22 0 111 83 508
480 l480 479 35 -29 35 -29 -443 -443 c-243 -244 -442 -447 -442 -451 0 -4 12
-7 27 -7 22 0 104 77 464 436 l437 437 34 -23 c18 -13 35 -25 38 -27 2 -2
-177 -185 -398 -406 -221 -221 -402 -406 -402 -410 0 -4 12 -7 27 -7 22 0 98
70 423 395 217 217 399 395 402 395 4 0 23 -10 43 -21 l37 -22 -366 -366
c-201 -202 -366 -370 -366 -374 0 -4 12 -7 27 -7 22 0 92 65 389 362 l363 361
41 -18 c22 -10 40 -21 40 -24 0 -3 -144 -150 -321 -326 -176 -176 -325 -328
-330 -337 -8 -15 -5 -18 18 -18 22 0 86 59 358 330 l332 331 46 -18 47 -19
-296 -294 c-162 -162 -300 -303 -305 -312 -8 -15 -5 -18 17 -18 23 0 83 55
333 303 l306 304 49 -14 49 -15 -282 -282 c-154 -155 -281 -285 -281 -289 0
-4 12 -7 27 -7 21 0 80 53 308 280 154 154 287 280 295 280 8 0 33 -5 54 -11
l39 -11 -262 -262 c-143 -144 -261 -265 -261 -269 0 -4 12 -7 27 -7 21 0 78
51 293 265 l266 266 58 -7 58 -7 -251 -251 c-138 -139 -251 -255 -251 -259 0
-4 12 -7 27 -7 21 0 76 49 283 255 l256 255 64 0 64 0 -247 -248 c-136 -136
-247 -251 -247 -255 0 -4 12 -7 27 -7 21 0 76 49 282 254 l256 254 68 4 67 4
-250 -251 c-137 -138 -250 -254 -250 -258 0 -4 12 -7 27 -7 21 0 78 51 292
264 263 261 267 264 316 271 28 3 61 9 75 12 17 4 -57 -78 -242 -264 -148
-148 -268 -272 -268 -276 0 -4 12 -7 27 -7 22 0 82 55 317 289 l291 288 72 22
c40 12 80 24 90 28 10 3 -120 -133 -289 -304 -170 -170 -308 -312 -308 -316 0
-4 12 -7 27 -7 22 0 90 63 372 344 337 335 348 345 436 390 50 25 110 57 135
72 30 18 -89 -108 -362 -382 -225 -225 -408 -413 -408 -417 0 -4 12 -7 27 -7
23 0 202 175 1111 1082 596 596 1092 1095 1103 1111 11 15 19 37 17 50 -4 18
-71 -44 -417 -388 -279 -277 -405 -395 -387 -365 15 25 47 86 72 135 45 88 55
99 390 436 281 282 344 350 344 372 0 15 -3 27 -7 27 -4 0 -146 -138 -316
-307 -171 -170 -307 -300 -304 -290 4 10 16 50 28 90 l22 72 288 291 c234 235
289 295 289 317 0 15 -3 27 -7 27 -4 0 -128 -120 -276 -267 -186 -186 -268
-260 -264 -243 3 14 9 48 12 75 7 49 10 53 271 316 213 214 264 271 264 292 0
15 -3 27 -7 27 -4 0 -120 -113 -258 -250 l-251 -250 4 67 4 68 254 256 c205
206 254 261 254 282 0 15 -3 27 -7 27 -4 0 -119 -111 -255 -247 l-248 -247 0
64 0 64 255 256 c206 207 255 262 255 283 0 15 -3 27 -7 27 -4 0 -120 -113
-259 -251 l-251 -251 -7 58 -7 58 266 266 c214 215 265 272 265 293 0 15 -3
27 -7 27 -4 0 -125 -118 -269 -261 l-262 -262 -11 39 c-6 21 -11 46 -11 54 0
8 126 141 280 295 227 228 280 287 280 308 0 15 -3 27 -7 27 -4 0 -134 -127
-289 -281 l-282 -282 -15 49 -14 49 304 306 c248 250 303 310 303 333 0 22 -3
25 -17 17 -10 -5 -151 -143 -313 -305 l-294 -296 -19 47 -18 46 331 332 c271
272 330 336 330 358 0 23 -3 26 -17 18 -10 -5 -162 -154 -338 -330 -176 -177
-323 -321 -326 -321 -3 0 -14 18 -24 40 l-18 41 361 363 c297 297 362 367 362
389 0 15 -3 27 -7 27 -4 0 -172 -165 -374 -366 l-366 -366 -22 37 c-11 20 -21
39 -21 43 0 3 178 185 395 402 325 325 395 401 395 423 0 15 -3 27 -7 27 -4 0
-189 -181 -410 -402 -221 -221 -404 -400 -406 -398 -2 3 -14 20 -27 38 l-23
34 437 437 c359 360 436 442 436 464 0 15 -3 27 -7 27 -4 0 -207 -199 -451
-442 l-443 -443 -29 35 -29 35 479 480 c397 397 480 486 480 508 0 15 -3 27
-7 27 -4 0 -227 -219 -496 -487 l-488 -488 -30 35 -29 34 525 526 c435 436
525 530 525 553 0 15 -3 27 -7 27 -4 0 -249 -241 -543 -535 l-536 -535 -32 33
-32 33 511 509 c281 281 515 518 520 528 8 14 5 17 -18 17 -23 0 -112 -85
-540 -512 l-513 -513 -32 33 -33 32 473 473 c259 260 472 476 472 480 0 4 -12
7 -27 7 -22 0 -108 -81 -493 -465 l-465 -465 -38 27 -38 27 431 431 c236 237
430 434 430 438 0 4 -12 7 -27 7 -22 0 -101 -74 -448 -420 -231 -231 -424
-420 -427 -420 -4 0 -23 10 -43 21 l-37 22 391 391 c215 215 391 395 391 399
0 4 -12 7 -27 7 -22 0 -96 -69 -412 -384 l-386 -385 -42 22 -43 22 346 345
c190 190 350 353 355 363 8 14 5 17 -18 17 -22 0 -89 -62 -379 -351 l-351
-351 -43 22 -43 22 322 322 c176 177 321 325 321 329 0 4 -12 7 -27 7 -22 0
-86 -59 -348 -320 l-320 -320 -47 18 -47 18 285 284 c157 157 290 293 295 303
8 14 5 17 -17 17 -23 0 -81 -53 -323 -294 l-296 -294 -49 15 -49 14 271 273
c150 149 272 275 272 279 0 4 -12 7 -27 7 -21 0 -79 -52 -302 -273 l-276 -273
-53 11 -52 10 246 245 c135 135 250 253 255 263 8 14 5 17 -17 17 -22 0 -76
-48 -286 -257 l-258 -257 -47 3 c-26 1 -52 5 -56 8 -5 3 99 114 232 247 133
133 241 245 241 249 0 4 -12 7 -27 7 -21 0 -75 -49 -278 -250 l-251 -250 -64
0 -64 0 242 243 c133 134 242 246 242 250 0 4 -12 7 -27 7 -21 0 -75 -49 -277
-249 l-251 -249 -70 -7 -70 -7 248 249 c136 137 247 252 247 256 0 4 -12 7
-27 7 -21 0 -77 -50 -288 -261 l-262 -260 -69 -15 c-38 -8 -73 -14 -79 -14 -5
0 111 121 258 268 147 147 267 271 267 275 0 4 -12 7 -27 7 -22 0 -81 -55
-317 -289 l-291 -290 -100 -35 -99 -36 317 318 c174 175 317 321 317 325 0 4
-12 7 -27 7 -22 0 -94 -67 -392 -362 -340 -337 -372 -366 -450 -408 -47 -25
-119 -69 -160 -99 -62 -43 6 29 377 401 248 249 452 457 452 461 0 4 -12 7
-27 7 -23 0 -198 -170 -1081 -1052z m1533 -1468 l-825 -825 -32 33 -33 32 825
825 825 825 33 -32 33 -32 -826 -826z m100 -100 l-825 -825 -32 33 -33 32 825
825 825 825 33 -32 33 -32 -826 -826z m900 760 l29 -31 -827 -827 -827 -827
-32 33 -33 32 825 825 c454 454 827 825 831 825 3 0 18 -14 34 -30z m100 -100
l29 -31 -827 -827 -827 -827 -32 33 -33 32 825 825 c454 454 827 825 831 825
3 0 18 -14 34 -30z m65 -73 c0 -1 -372 -373 -827 -827 l-828 -825 825 828
c454 455 826 827 827 827 2 0 3 -1 3 -3z m-2280 -602 l-210 -210 -32 33 -33
32 210 210 209 210 33 -32 34 -32 -211 -211z m100 -100 l-210 -210 -32 33 -33
32 210 210 209 210 33 -32 34 -32 -211 -211z m100 -100 l-210 -210 -32 33 -33
32 210 210 209 210 33 -32 34 -32 -211 -211z m100 -100 l-210 -210 -32 33 -33
32 210 210 209 210 33 -32 34 -32 -211 -211z m100 -100 l-210 -210 -32 33 -33
32 210 210 209 210 33 -32 34 -32 -211 -211z"/>
<path d="M4096 1050 c-559 -558 -1022 -1023 -1027 -1033 -8 -14 -5 -17 18 -17
23 0 181 153 1011 983 541 540 992 994 1003 1010 11 15 19 37 17 50 -4 18
-175 -149 -1022 -993z"/>
<path d="M4196 950 c-504 -503 -922 -923 -927 -932 -8 -15 -5 -18 18 -18 23 0
167 139 911 882 486 486 892 895 903 911 11 15 19 37 17 50 -4 18 -158 -132
-922 -893z"/>
<path d="M4296 850 c-449 -448 -822 -823 -827 -832 -8 -15 -5 -18 18 -18 23 0
152 124 811 783 431 430 792 794 803 810 11 15 19 37 17 50 -4 18 -141 -114
-822 -793z"/>
<path d="M4396 750 c-394 -393 -722 -723 -727 -732 -8 -15 -5 -18 18 -18 23 0
137 110 711 683 376 375 692 694 703 710 11 15 19 37 17 50 -4 18 -124 -97
-722 -693z"/>
<path d="M4496 650 c-339 -338 -622 -623 -627 -632 -8 -15 -5 -18 18 -18 23 0
123 95 611 583 321 320 592 594 603 610 11 15 19 37 17 50 -4 18 -106 -80
-622 -593z"/>
<path d="M4596 550 c-284 -283 -522 -523 -527 -533 -8 -14 -5 -17 18 -17 23 0
108 81 511 483 266 265 492 494 503 510 11 15 19 37 17 50 -4 18 -89 -62 -522
-493z"/>
<path d="M4696 450 c-229 -228 -422 -423 -427 -432 -8 -15 -5 -18 18 -18 22 0
93 66 411 383 211 210 392 394 403 410 11 15 19 37 17 50 -4 18 -72 -45 -422
-393z"/>
<path d="M4796 350 c-174 -173 -322 -323 -327 -332 -8 -15 -5 -18 17 -18 23 0
80 52 312 282 156 156 293 295 303 311 11 15 19 37 17 50 -4 18 -54 -28 -322
-293z"/>
<path d="M4896 250 c-119 -118 -222 -223 -227 -232 -8 -15 -5 -18 17 -18 21 0
65 37 211 183 205 202 226 227 221 260 -3 19 -37 -11 -222 -193z"/>
<path d="M4996 150 c-136 -133 -149 -150 -111 -150 18 0 49 23 111 82 102 98
127 130 122 161 -3 19 -19 7 -122 -93z"/>
</g>
</svg>
